<svg id="Layer_1" data-name="Layer 1" xmlns="http://www.w3.org/2000/svg" xmlns:xlink="http://www.w3.org/1999/xlink" width="1699.9063" height="263.0272" viewBox="0 0 1699.9063 263.0272">
  <defs>
    <style>
      .cls-1 {
        fill: #2a2a72;
      }

      .cls-2 {
        fill: #ff1d25;
      }

      .cls-3 {
        fill: url(#linear-gradient);
      }

      .cls-4 {
        fill: url(#linear-gradient-2);
      }
    </style>
    <linearGradient id="linear-gradient" x1="418.2325" y1="533.2759" x2="562.8436" y2="533.2759" gradientUnits="userSpaceOnUse">
      <stop offset="0.3" stop-color="red"/>
      <stop offset="1" stop-color="#ff7c19"/>
    </linearGradient>
    <linearGradient id="linear-gradient-2" x1="86" y1="533.2758" x2="562.8436" y2="533.2758" gradientUnits="userSpaceOnUse">
      <stop offset="0" stop-color="#009ffd"/>
      <stop offset="0.1244" stop-color="#0985de"/>
      <stop offset="0.309" stop-color="#1565b8"/>
      <stop offset="0.4918" stop-color="#1e4b99"/>
      <stop offset="0.6703" stop-color="#253984"/>
      <stop offset="0.8421" stop-color="#292e76"/>
      <stop offset="1" stop-color="#2a2a72"/>
    </linearGradient>
  </defs>
  <g>
    <g>
      <path class="cls-1" d="M668.1211,582.4229l19.6143-23.4952c13.58,11.209,27.8056,18.3213,45.05,18.3213,13.5791,0,21.7695-5.3886,21.7695-14.2256v-.4306c0-8.4063-5.1729-12.7178-30.3916-19.1836-30.3926-7.76-50.0069-16.1665-50.0069-46.127v-.4311c0-27.3745,21.9854-45.48,52.8086-45.48,21.9854,0,40.7383,6.8975,56.042,19.1836l-17.2441,25.0034c-13.3633-9.2685-26.5117-14.8725-39.2285-14.8725s-19.3994,5.82-19.3994,13.1484v.4307c0,9.9155,6.4668,13.1484,32.5468,19.83,30.6084,7.9751,47.8516,18.9678,47.8516,45.2647v.4306c0,29.961-22.8477,46.7735-55.3955,46.7735A96.0108,96.0108,0,0,1,668.1211,582.4229Z" transform="translate(-86 -401.7622)"/>
      <path class="cls-1" d="M809.7305,529.3984v-.4311c0-42.8936,33.8408-78.0278,80.3984-78.0278s79.9678,34.7031,79.9678,77.5966v.4312c0,42.8931-33.8408,78.0278-80.3985,78.0278S809.7305,572.292,809.7305,529.3984Zm125.6631,0v-.4311c0-25.8657-18.9678-47.42-45.6954-47.42s-45.2646,21.1235-45.2646,46.9887v.4312c0,25.8657,18.9678,47.42,45.6953,47.42S935.3936,555.2637,935.3936,529.3984Z" transform="translate(-86 -401.7622)"/>
      <path class="cls-1" d="M999.6191,453.5264h33.1944v120.705h75.2256v30.1768h-108.42Z" transform="translate(-86 -401.7622)"/>
      <path class="cls-1" d="M1134.5449,453.5264h33.1944V604.4082h-33.1944Z" transform="translate(-86 -401.7622)"/>
      <path class="cls-2" d="M1240.5918,484.1338H1194.68V453.5264h125.0166v30.6074h-45.9111V604.4082h-33.1934Z" transform="translate(-86 -401.7622)"/>
      <path class="cls-2" d="M1345.126,453.5264h113.8086v29.53h-80.83v30.6074h71.1309v29.53h-71.1309v31.6855h81.9072v29.5293H1345.126Z" transform="translate(-86 -401.7622)"/>
      <path class="cls-2" d="M1482.8555,529.3984v-.4311c0-42.8936,32.332-78.0278,78.6738-78.0278,28.4521,0,45.4805,9.4843,59.4912,23.2793l-21.124,24.3564c-11.6387-10.5615-23.4942-17.0278-38.582-17.0278-25.4346,0-43.7559,21.1235-43.7559,46.9887v.4312c0,25.8657,17.89,47.42,43.7559,47.42,17.2431,0,27.8046-6.8975,39.66-17.6748l21.1231,21.3389c-15.5186,16.5966-32.7627,26.9433-61.8614,26.9433C1515.834,606.9951,1482.8555,572.7227,1482.8555,529.3984Z" transform="translate(-86 -401.7622)"/>
      <path class="cls-2" d="M1648.6035,453.5264h33.1944v65.957l61.2148-65.957h40.0918l-61.4307,64.0171,64.2324,86.8647H1746.03l-46.7735-64.2324-17.4589,18.1054v46.127h-33.1944Z" transform="translate(-86 -401.7622)"/>
    </g>
    <path class="cls-3" d="M516.6762,487.9H447.3641a29.2174,29.2174,0,0,0-29.1316,29.1317v32.4894a29.2173,29.2173,0,0,0,29.1316,29.1316h115.48V487.9H516.6762Zm28.968,43.8523a20.0281,20.0281,0,1,1-20.028-20.028A20.028,20.028,0,0,1,545.6442,531.7518Z" transform="translate(-86 -401.7622)"/>
    <path class="cls-4" d="M562.8436,469.4181V438.1768a36.5216,36.5216,0,0,0-36.4145-36.4146l-12.157.058H353.5952c-.4608-.0373-.9262-.058-1.3963-.058H103.4176A17.4688,17.4688,0,0,0,86,419.18v0a17.4688,17.4688,0,0,0,17.4176,17.4175l245.6633.2588a20.7887,20.7887,0,0,1,5.5033,40.84H158.4371a17.4176,17.4176,0,1,0,0,34.8352h88a20.8522,20.8522,0,0,1,19.6511,20.7447v0A20.8813,20.8813,0,0,1,249.5607,553.63H120.1418a17.4688,17.4688,0,0,0-17.4176,17.4175v0a17.4688,17.4688,0,0,0,17.4176,17.4175h183.88a20.7957,20.7957,0,0,1-3.8637,41.2308l-20.743.2588H195.0673A17.4685,17.4685,0,0,0,177.65,647.3718v0a17.4685,17.4685,0,0,0,17.4174,17.4175H526.4291a36.5215,36.5215,0,0,0,36.4145-36.4146V595.5342h-42.21v18.8449a9.9495,9.9495,0,0,1-19.8989,0V595.5342h-18.09v18.8449a9.9495,9.9495,0,0,1-19.8989,0V595.5342h-15.52a45.6521,45.6521,0,0,1-45.5182-45.5183v-35.08a45.652,45.652,0,0,1,45.5182-45.5182h15.52V452.1725a9.9495,9.9495,0,0,1,19.8989,0v17.2456h18.09V452.1725a9.9495,9.9495,0,0,1,19.8989,0v17.2456Z" transform="translate(-86 -401.7622)"/>
  </g>
</svg>
